<mxfile host="app.diagrams.net" modified="2024-02-06T05:24:01.365Z" agent="Mozilla/5.0 (Windows NT 10.0; Win64; x64) AppleWebKit/537.36 (KHTML, like Gecko) Chrome/121.0.0.0 Safari/537.36" version="23.1.1" etag="MVReKHiR92lK-9_sb56N" type="github">
  <diagram name="Page-1" id="BcZF4NTNFum_j8fG3Sul">
    <mxGraphModel>
      <root>
        <mxCell id="0" />
        <mxCell id="1" parent="0" />
      </root>
    </mxGraphModel>
  </diagram>
</mxfile>
